<?xml version="1.0" encoding="utf-8"?>
<!-- Generator: Adobe Illustrator 22.0.1, SVG Export Plug-In . SVG Version: 6.00 Build 0)  -->
<svg version="1.1" id="레이어_1" xmlns="http://www.w3.org/2000/svg" xmlns:xlink="http://www.w3.org/1999/xlink" x="0px"
	 y="0px" viewBox="0 0 587 478.1" style="enable-background:new 0 0 587 478.1;" xml:space="preserve">
<style type="text/css">
	.st0{fill:#60584D;}
	.st1{fill:#60584D;stroke:#60584D;stroke-width:0.75;stroke-miterlimit:10;}
</style>
<g>
	<g>
		<path class="st0" d="M23.6,323.8l-18.5,4.5l-4.9-19.1l30.5-9.1h15.9V407h-23V323.8z"/>
		<path class="st0" d="M56.9,396.2l9.9-15.2c8.8,6.4,18,9.7,25.6,9.7c6.7,0,9.7-2.4,9.7-6.1v-0.3c0-5-7.9-6.7-16.8-9.4
			c-11.4-3.3-24.3-8.6-24.3-24.4v-0.3c0-16.5,13.3-25.8,29.7-25.8c10.3,0,21.5,3.5,30.3,9.4l-8.8,15.9c-8-4.7-16.1-7.6-22-7.6
			c-5.6,0-8.5,2.4-8.5,5.6v0.3c0,4.5,7.7,6.7,16.5,9.7c11.4,3.8,24.6,9.2,24.6,24.1v0.3c0,18-13.5,26.2-31.1,26.2
			C80.4,408.5,67.7,404.7,56.9,396.2z"/>
		<path class="st0" d="M134.1,384v-38.5h-9.7v-19.7h9.7V305h23v20.8h19.1v19.7h-19.1v34.7c0,5.3,2.3,7.9,7.4,7.9
			c4.2,0,8-1.1,11.4-2.9v18.5c-4.9,2.9-10.5,4.7-18.2,4.7C143.6,408.4,134.1,402.8,134.1,384z"/>
		<path class="st0" d="M225.9,300.9h23.3v42h43v-42h23.3V407h-23.3v-42.6h-43V407h-23.3V300.9z"/>
		<path class="st0" d="M327.2,366.8v-0.3c0-23.3,18.8-42.3,44.1-42.3c25.2,0,43.8,18.6,43.8,42v0.3c0,23.3-18.8,42.3-44.1,42.3
			C345.8,408.8,327.2,390.2,327.2,366.8z M392.4,366.8v-0.3c0-12-8.6-22.4-21.4-22.4c-13.2,0-21.1,10.2-21.1,22.1v0.3
			c0,12,8.6,22.4,21.4,22.4C384.5,389,392.4,378.8,392.4,366.8z"/>
		<path class="st0" d="M428,384v-38.5h-9.7v-19.7h9.7V305h23v20.8h19.1v19.7H451v34.7c0,5.3,2.3,7.9,7.4,7.9c4.2,0,8-1.1,11.4-2.9
			v18.5c-4.9,2.9-10.5,4.7-18.2,4.7C437.5,408.4,428,402.8,428,384z"/>
		<path class="st0" d="M473.3,366.8v-0.3c0-23.2,16.5-42.3,40.2-42.3c27.1,0,39.6,21.1,39.6,44.1c0,1.8-0.2,3.9-0.3,6.1h-56.5
			c2.3,10.5,9.5,15.9,19.9,15.9c7.7,0,13.3-2.4,19.7-8.3l13.2,11.7c-7.6,9.4-18.5,15.2-33.2,15.2
			C491.3,408.8,473.3,391.7,473.3,366.8z M530.6,360c-1.4-10.3-7.4-17.3-17.1-17.3c-9.5,0-15.8,6.8-17.6,17.3H530.6z"/>
		<path class="st0" d="M563.6,296.3h23V407h-23V296.3z"/>
	</g>
	<g>
		<path class="st0" d="M112.5,446.3h6.2v11.1H130v-11.1h6.2v28H130v-11.2h-11.4v11.2h-6.2V446.3z"/>
		<path class="st0" d="M145.2,463.7L145.2,463.7c0-6.2,5-11.2,11.6-11.2c6.6,0,11.6,4.9,11.6,11.1v0.1c0,6.2-5,11.2-11.6,11.2
			C150.2,474.8,145.2,469.9,145.2,463.7z M162.4,463.7L162.4,463.7c0-3.2-2.3-6-5.6-6c-3.5,0-5.6,2.7-5.6,5.8v0.1
			c0,3.2,2.3,5.9,5.6,5.9C160.4,469.5,162.4,466.9,162.4,463.7z"/>
		<path class="st0" d="M177.8,468.2v-10.2h-2.6v-5.2h2.6v-5.5h6.1v5.5h5v5.2h-5v9.2c0,1.4,0.6,2.1,2,2.1c1.1,0,2.1-0.3,3-0.8v4.9
			c-1.3,0.8-2.8,1.2-4.8,1.2C180.4,474.7,177.8,473.2,177.8,468.2z"/>
		<path class="st0" d="M195.8,463.7L195.8,463.7c0-6.2,4.4-11.2,10.6-11.2c7.2,0,10.4,5.6,10.4,11.6c0,0.5,0,1-0.1,1.6h-14.9
			c0.6,2.8,2.5,4.2,5.2,4.2c2,0,3.5-0.6,5.2-2.2l3.5,3.1c-2,2.5-4.9,4-8.8,4C200.6,474.8,195.8,470.3,195.8,463.7z M210.9,461.9
			c-0.4-2.7-2-4.6-4.5-4.6c-2.5,0-4.2,1.8-4.6,4.6H210.9z"/>
		<path class="st0" d="M225.6,445.1h6.1v29.2h-6.1V445.1z"/>
		<path class="st0" d="M273.7,471.6c-2.3,1.9-5,3.1-8.2,3.1c-5.4,0-9.4-3.1-9.4-8.1v-0.1c0-3.6,1.9-6.1,5.4-7.7
			c-1.4-1.9-2-3.7-2-5.6v-0.1c0-3.8,3.1-7.4,8.5-7.4c4.8,0,7.9,3.1,7.9,7v0.1c0,3.8-2.4,6-5.9,7.3l3.7,3.7c0.9-1.4,1.8-3.1,2.7-4.8
			l4.5,2.5c-1.1,2-2.3,4-3.7,5.9l4.1,4.1l-4.5,3.2L273.7,471.6z M270.2,468.1l-5.4-5.4c-1.8,1-2.6,2.3-2.6,3.7v0.1
			c0,2,1.6,3.3,3.9,3.3C267.6,469.7,269,469.1,270.2,468.1z M270.6,453.3L270.6,453.3c0-1.7-1.1-2.7-2.6-2.7c-1.6,0-2.7,1.2-2.7,2.8
			v0.1c0,1.2,0.5,2.2,1.6,3.5C269.3,456.1,270.6,455.1,270.6,453.3z"/>
		<path class="st0" d="M305.9,446.3h12.8c3.6,0,6.3,1,8.2,2.8c1.6,1.6,2.4,3.8,2.4,6.4v0.1c0,4.5-2.4,7.4-6,8.7l6.8,10h-7.2l-6-9
			h-0.1h-4.8v9h-6.2V446.3z M318.3,459.9c3,0,4.7-1.6,4.7-4v-0.1c0-2.6-1.8-4-4.8-4h-6.1v8H318.3z"/>
		<path class="st0" d="M336.8,463.7L336.8,463.7c0-6.2,4.4-11.2,10.6-11.2c7.2,0,10.4,5.6,10.4,11.6c0,0.5,0,1-0.1,1.6h-14.9
			c0.6,2.8,2.5,4.2,5.2,4.2c2,0,3.5-0.6,5.2-2.2l3.5,3.1c-2,2.5-4.9,4-8.8,4C341.5,474.8,336.8,470.3,336.8,463.7z M351.9,461.9
			c-0.4-2.7-2-4.6-4.5-4.6c-2.5,0-4.2,1.8-4.6,4.6H351.9z"/>
		<path class="st0" d="M364.6,471.5l2.6-4c2.3,1.7,4.8,2.6,6.8,2.6c1.8,0,2.6-0.6,2.6-1.6v-0.1c0-1.3-2.1-1.8-4.4-2.5
			c-3-0.9-6.4-2.3-6.4-6.4v-0.1c0-4.4,3.5-6.8,7.8-6.8c2.7,0,5.7,0.9,8,2.5l-2.3,4.2c-2.1-1.2-4.2-2-5.8-2c-1.5,0-2.2,0.6-2.2,1.5
			v0.1c0,1.2,2,1.8,4.4,2.6c3,1,6.5,2.4,6.5,6.4v0.1c0,4.8-3.6,6.9-8.2,6.9C370.8,474.7,367.5,473.7,364.6,471.5z"/>
		<path class="st0" d="M389.4,463.7L389.4,463.7c0-6.2,5-11.2,11.6-11.2c6.6,0,11.6,4.9,11.6,11.1v0.1c0,6.2-5,11.2-11.6,11.2
			C394.3,474.8,389.4,469.9,389.4,463.7z M406.6,463.7L406.6,463.7c0-3.2-2.3-6-5.6-6c-3.5,0-5.6,2.7-5.6,5.8v0.1
			c0,3.2,2.3,5.9,5.6,5.9C404.5,469.5,406.6,466.9,406.6,463.7z"/>
		<path class="st0" d="M421,452.9h6.1v4.3c1.2-3,3.2-4.9,6.8-4.7v6.4h-0.3c-4,0-6.5,2.4-6.5,7.6v7.9H421V452.9z"/>
		<path class="st0" d="M442.7,468.2v-10.2h-2.6v-5.2h2.6v-5.5h6.1v5.5h5v5.2h-5v9.2c0,1.4,0.6,2.1,2,2.1c1.1,0,2.1-0.3,3-0.8v4.9
			c-1.3,0.8-2.8,1.2-4.8,1.2C445.2,474.7,442.7,473.2,442.7,468.2z"/>
		<path class="st0" d="M460.6,471.5l2.6-4c2.3,1.7,4.8,2.6,6.8,2.6c1.8,0,2.6-0.6,2.6-1.6v-0.1c0-1.3-2.1-1.8-4.4-2.5
			c-3-0.9-6.4-2.3-6.4-6.4v-0.1c0-4.4,3.5-6.8,7.8-6.8c2.7,0,5.7,0.9,8,2.5l-2.3,4.2c-2.1-1.2-4.2-2-5.8-2c-1.5,0-2.2,0.6-2.2,1.5
			v0.1c0,1.2,2,1.8,4.4,2.6c3,1,6.5,2.4,6.5,6.4v0.1c0,4.8-3.6,6.9-8.2,6.9C466.8,474.7,463.4,473.7,460.6,471.5z"/>
	</g>
	<path class="st1" d="M295.6,9.5c-66.4,0-120.3,53.9-120.3,120.3c0,10,1.3,19.8,3.6,29.1l6.1-2.2v20.4c2.9,6.8,6.5,13.3,10.5,19.4
		c0-0.1,0-0.2,0-0.2V152l7.8-3.8v58.6c0,0.1,0.1,0.3,0.1,0.4c2.9,3.5,6,6.7,9.3,9.9v-73.4l7.8-3.8v84.1c3,2.4,6.1,4.7,9.4,6.8v-95.4
		l7.8-3.8V234c0.2,0.5,0.4,1.1,0.5,1.6c2.9,1.6,5.8,3,8.8,4.3V133.1V81.4l7.8-4.8v60.8l9.4,5V70.7l7.8-4.8v80.6l12.5,6.7v-95
		l7.8-4.8v196c0.1,0.3,0.3,0.5,0.4,0.8c0.9,0,1.8,0.1,2.7,0.1c1.6,0,3.1-0.1,4.7-0.1V48.5l7.8-4.8v205.8c3.7-0.4,7.3-0.9,10.9-1.6
		V45.2l50,36.1V225c28.5-22,46.9-56.5,46.9-95.3C415.9,63.3,362,9.5,295.6,9.5z"/>
</g>
</svg>
