<svg id="레이어_1" data-name="레이어 1" xmlns="http://www.w3.org/2000/svg" viewBox="0 0 117.03 40.85"><defs><style>.cls-1{fill:#797062;}</style></defs><title>titleLogo</title><path class="cls-1" d="M4.3,29v-23H.48V4.22C3,4,4.38,3.39,4.86,1.16H7V29Z" transform="translate(-0.48)"/><path class="cls-1" d="M17.24,29.47a7,7,0,0,1-5.89-3.42l2-1.76C14.61,26,15.77,27,17.32,27c2,0,3.19-1.07,3.19-2.71,0-1.87-.76-2.94-3.9-4.89S11.83,16,11.83,12.86a5.1,5.1,0,0,1,5.41-5.17,6.24,6.24,0,0,1,5.5,3l-2,1.72c-1-1.32-2-2.27-3.63-2.27a2.39,2.39,0,0,0-2.62,2.5c0,1.64.75,2.51,3.74,4.39,3.26,2,4.94,3.62,4.94,6.93C23.14,27.44,20.43,29.47,17.24,29.47Z" transform="translate(-0.48)"/><path class="cls-1" d="M34.53,28.87a7.44,7.44,0,0,1-3.11.6C29,29.47,28,28,28,25.05V10.43H25.81V8.12H28V1.59L30.62,0V8.12h4v2.31h-4V24.77c0,1.52.52,2.15,1.6,2.15a5.92,5.92,0,0,0,2.55-.55Z" transform="translate(-0.48)"/><path class="cls-1" d="M59.38,29V15.57h-9V29H47.63V1.16h2.79V13h9V1.16h2.75V29Z" transform="translate(-0.48)"/><path class="cls-1" d="M73.84,29.47c-4.3,0-7.09-3.74-7.09-10.87S69.61,7.69,73.92,7.69,81,11.43,81,18.52,78.1,29.47,73.84,29.47Zm0-19.27c-2.75,0-4.34,2.7-4.34,8.36S71.13,27,73.88,27s4.38-2.75,4.38-8.4S76.58,10.2,73.84,10.2Z" transform="translate(-0.48)"/><path class="cls-1" d="M92.56,28.87a7.47,7.47,0,0,1-3.11.6C87.06,29.47,86,28,86,25.05V10.43H83.83V8.12H86V1.59L88.65,0V8.12h4v2.31h-4V24.77c0,1.52.52,2.15,1.6,2.15a5.85,5.85,0,0,0,2.54-.55Z" transform="translate(-0.48)"/><path class="cls-1" d="M109,19.51H98.45C98.65,24,100,27,102.59,27c1.67,0,2.87-.67,4.3-2.35l1.64,1.76c-1.8,2-3.63,3.1-6.1,3.1-3.62,0-6.65-3.42-6.65-10.87,0-6.93,2.67-10.91,6.77-10.91,4.26,0,6.53,4.06,6.53,10.75A8.14,8.14,0,0,1,109,19.51Zm-6.57-9.31c-2.19,0-3.74,2.15-4,6.89h8C106.3,13.06,105.06,10.2,102.47,10.2Z" transform="translate(-0.48)"/><path class="cls-1" d="M113.82,29V1.59L116.53,0V29Z" transform="translate(-0.48)"/><path class="cls-1" d="M3.2,35.36h.17V38H7.22v-2.6h.17v5.39H7.22V38.11H3.37v2.64H3.2Z" transform="translate(-0.48)"/><path class="cls-1" d="M12.73,38.06h0a2.69,2.69,0,1,1,5.37,0h0a2.69,2.69,0,1,1-5.37,0Zm5.2,0h0a2.56,2.56,0,0,0-2.52-2.64A2.52,2.52,0,0,0,12.9,38v0a2.55,2.55,0,0,0,2.52,2.63A2.52,2.52,0,0,0,17.93,38.07Z" transform="translate(-0.48)"/><path class="cls-1" d="M24.37,35.51H22.42v-.15h4.07v.15H24.54v5.24h-.17Z" transform="translate(-0.48)"/><path class="cls-1" d="M31.48,35.36h3.77v.15h-3.6V38h3.27v.16H31.65V40.6h3.64v.15H31.48Z" transform="translate(-0.48)"/><path class="cls-1" d="M40.55,35.36h.17V40.6H44v.15H40.55Z" transform="translate(-0.48)"/><path class="cls-1" d="M52,39.84a2.37,2.37,0,0,1-1.83,1,1.48,1.48,0,0,1-1.6-1.39v0c0-.91.74-1.31,1.49-1.66a2,2,0,0,1-.72-1.36v0a1.15,1.15,0,0,1,1.22-1.11,1.14,1.14,0,0,1,1.2,1.08v0c0,.56-.36,1-1.44,1.44L52,39.61a6.64,6.64,0,0,0,.75-1.51l.15,0a6.41,6.41,0,0,1-.8,1.57l.94,1-.12.1Zm-.1-.11-1.72-1.85c-.73.33-1.44.69-1.44,1.54v0a1.32,1.32,0,0,0,1.43,1.24A2.23,2.23,0,0,0,51.88,39.73Zm-.31-3.36v0a1,1,0,0,0-1-.94,1,1,0,0,0-1.06,1h0a1.9,1.9,0,0,0,.72,1.31C51.25,37.24,51.57,36.88,51.57,36.37Z" transform="translate(-0.48)"/><path class="cls-1" d="M58.06,35.36h2.21a2.12,2.12,0,0,1,1.55.51,1.33,1.33,0,0,1,.38,1h0c0,.91-.72,1.45-1.76,1.52l1.79,2.35H62L60.24,38.4h-2v2.35h-.17Zm2.12,2.89c1.25,0,1.85-.59,1.85-1.36h0c0-.86-.66-1.37-1.78-1.37h-2v2.74Z" transform="translate(-0.48)"/><path class="cls-1" d="M67.62,35.36h3.77v.15h-3.6V38h3.27v.16H67.79V40.6h3.64v.15H67.62Z" transform="translate(-0.48)"/><path class="cls-1" d="M76.31,40l.12-.13a2.83,2.83,0,0,0,2,.84c1,0,1.66-.55,1.66-1.27v0c0-.66-.4-1-1.77-1.29s-1.84-.67-1.84-1.42v0a1.58,1.58,0,0,1,1.76-1.38,3,3,0,0,1,1.83.62L80,36a2.82,2.82,0,0,0-1.74-.6c-1,0-1.57.58-1.57,1.21v0c0,.65.42,1,1.74,1.27s1.87.71,1.87,1.44v0c0,.8-.7,1.43-1.85,1.43A3,3,0,0,1,76.31,40Z" transform="translate(-0.48)"/><path class="cls-1" d="M85.34,38.06h0a2.69,2.69,0,1,1,5.37,0h0a2.69,2.69,0,1,1-5.37,0Zm5.2,0h0A2.56,2.56,0,0,0,88,35.42,2.52,2.52,0,0,0,85.51,38v0A2.55,2.55,0,0,0,88,40.69,2.52,2.52,0,0,0,90.54,38.07Z" transform="translate(-0.48)"/><path class="cls-1" d="M96.05,35.36h2.2a2.11,2.11,0,0,1,1.55.51,1.34,1.34,0,0,1,.39,1h0c0,.91-.73,1.45-1.77,1.52l1.8,2.35H100L98.22,38.4h-2v2.35h-.17Zm2.12,2.89c1.25,0,1.85-.59,1.85-1.36h0c0-.86-.66-1.37-1.78-1.37h-2v2.74Z" transform="translate(-0.48)"/><path class="cls-1" d="M106.89,35.51h-2v-.15H109v.15h-2v5.24h-.17Z" transform="translate(-0.48)"/><path class="cls-1" d="M113.53,40l.12-.13a2.85,2.85,0,0,0,2,.84c1,0,1.66-.55,1.66-1.27v0c0-.66-.4-1-1.77-1.29s-1.84-.67-1.84-1.42v0a1.58,1.58,0,0,1,1.76-1.38,3,3,0,0,1,1.83.62l-.1.14a2.85,2.85,0,0,0-1.75-.6c-.94,0-1.57.58-1.57,1.21v0c0,.65.42,1,1.74,1.27s1.87.71,1.87,1.44v0c0,.8-.7,1.43-1.84,1.43A3.05,3.05,0,0,1,113.53,40Z" transform="translate(-0.48)"/></svg>