<?xml version="1.0" encoding="utf-8"?>
<!-- Generator: Adobe Illustrator 22.0.1, SVG Export Plug-In . SVG Version: 6.00 Build 0)  -->
<svg version="1.1" id="레이어_1" xmlns="http://www.w3.org/2000/svg" xmlns:xlink="http://www.w3.org/1999/xlink" x="0px"
	 y="0px" viewBox="0 0 515.2 520.1" style="enable-background:new 0 0 515.2 520.1;" xml:space="preserve">
<style type="text/css">
	.st0{fill:#695846;}
	.st1{fill:#FFFFFF;}
</style>
<g>
	<path class="st0" d="M270.1,518.2c-8.1,0-16.1,0-24.2,0c-0.8-0.1-1.6-0.3-2.4-0.4c-4.2-0.3-8.4-0.5-12.6-1
		c-7.7-0.8-15.3-2-22.9-3.5c-15.4-3-30.4-7.4-44.9-13.2c-52.8-21-97.3-58.8-126.4-107.6C14.2,355.1,2.2,314.4,0.4,270.8
		c0-0.9-0.1-1.8-0.2-2.6c-0.1-0.6-0.4-1.3-0.6-1.9c0-3.9,0-7.8,0-11.7c0.8-1.3,0.7-2.8,0.8-4.3c0.2-5.7,0.6-11.4,1.2-17.1
		c0.7-6.5,1.6-13.1,2.8-19.5c2.9-16.2,7.4-32,13.5-47.4C42.1,104.7,89.2,54.5,149,26.6c18.5-8.6,37.7-14.9,57.6-19
		c6.1-1.2,12.1-2.3,18.3-3c4.9-0.5,9.9-1.1,14.8-1.5c3.3-0.3,6.7-0.4,10.1-0.6c0.7,0,1.4-0.2,2.2-0.4c4.2,0,8.3,0,12.5,0
		c0.8,0.5,1.7,0.4,2.6,0.4c5.8,0.2,11.5,0.6,17.3,1.2c6.3,0.6,12.7,1.5,18.9,2.6c16,2.8,31.7,7.2,46.9,13
		C425.3,48.2,483,110.6,505.6,188c5.3,18,8.7,36.4,9.6,55.2c0,0.6,0.3,1.2,0.4,1.7c0,10.5,0,21,0,31.4c-0.5,0.6-0.3,1.4-0.4,2.1
		c-0.1,1.5,0,3-0.2,4.4c-0.6,5.6-1.2,11.2-2,16.8c-1.5,9.8-3.5,19.4-6.2,28.9c-13.5,48.6-39,89.8-76.4,123.5
		c-34.7,31.2-74.9,51.5-120.7,60.9c-12.3,2.5-24.8,4.1-37.3,4.8C271.7,517.9,270.9,518.1,270.1,518.2z M145.2,151.7
		c-0.1-0.5-0.3-0.8-0.3-1.2c-0.4-3.1-0.8-6.1-1.2-9.2c-0.8-5.8-1.6-11.6-2.3-17.4c-0.3-2.1-0.6-4.3-0.8-6.4c-0.1-1-0.4-1.8-1.1-2.5
		c-1.3-1.3-2.8-1.9-4.7-1.9c-8.2,0.1-16.4,0-24.6,0c-0.5,0-0.9,0-1.4,0c-2.3,0.3-4.1,2.1-4.3,4.4c-0.2,2.2,1.1,4.3,3.3,5
		c0.9,0.3,1.9,0.3,2.8,0.3c6.2,0,12.4,0,18.5,0c0.7,0,1.5,0,2.3,0.1c0.2,1,0.3,1.9,0.5,2.9c0.3,2.5,0.7,5.1,1,7.6
		c0.6,4.5,1.2,9,1.8,13.6c0.6,4.5,1.2,9.1,1.8,13.6c0.6,4.6,1.2,9.2,1.9,13.8c0.6,4.6,1.2,9.2,1.9,13.8c0.6,4.4,1.2,8.8,1.7,13.2
		c0.5,3.7,0.9,7.5,1.4,11.2c0.6,4.7,1.2,9.5,1.8,14.2c0.6,4.7,1.2,9.3,1.8,14c0.6,4.9,1.3,9.7,1.9,14.6c0.6,4.6,1.2,9.2,1.8,13.8
		c0.6,4.8,1.2,9.6,1.9,14.4c0.5,3.6,0.9,7.2,1.4,10.8c0.6,4.7,1.2,9.5,1.8,14.2c0.4,2.9,0.7,5.9,1.2,8.8c0.4,2.7,2.1,4.2,4.8,4.3
		c0.9,0,1.7,0,2.6,0c64.2,0,128.3,0,192.5,0c0.7,0,1.5,0,2.2,0c0.3,0,0.6,0.1,1.1,0.2c-0.8,3.8-1.8,7.4-2.7,11
		c-0.9,3.7-1.8,7.4-3,11.1c-1,0-1.8,0-2.7,0c-55.6,0-111.3,0-166.9,0c-5.3,0-10.6,0-15.9,0c-0.7,0-1.4,0-2,0.1
		c-2.6,0.4-4.3,2.5-4.3,5c0.1,2.6,2,4.5,4.6,4.7c0.5,0,1.1,0,1.6,0c62.7,0,125.4,0,188,0c0.5,0,1.1,0,1.6,0c2.1-0.2,3.5-1.2,4.3-3.2
		c0.2-0.4,0.3-0.9,0.4-1.4c2.8-11.1,5.7-22.1,8.5-33.2c1.9-7.2,3.7-14.4,5.6-21.6c6.5-25.5,13.1-51,19.6-76.5
		c4.9-19.2,9.9-38.5,14.8-57.7c0.7-2.7,0-4.6-2.2-6.1c-0.7-0.5-1.5-0.8-2.4-0.7c-0.5,0.1-1.1,0.1-1.6,0.1
		c-18.5-0.1-37.1-0.3-55.6-0.4c-18.3-0.1-36.5-0.2-54.8-0.4c-19.8-0.1-39.5-0.3-59.3-0.4c-29.2-0.2-58.4-0.4-87.7-0.6
		C146.9,151.7,146.1,151.7,145.2,151.7z M354.9,384.2c0.2-12.9-10.5-23.3-23-23.4c-12.5-0.1-23.4,9.9-23.5,23.1
		c-0.1,12.9,10.3,23.4,23.2,23.5C344.6,407.5,355,396.8,354.9,384.2z M215.8,360.9c-12.6-0.1-23.3,10.4-23.3,23.4
		c0,12.8,10.6,23.3,23.5,23.2c12.8-0.1,23.1-10.5,23.2-23.3C239.1,371,228.3,360.7,215.8,360.9z"/>
	<path class="st1" d="M145.2,151.7c1,0,1.8,0,2.6,0c29.2,0.2,58.4,0.4,87.7,0.6c19.8,0.1,39.5,0.3,59.3,0.4
		c18.3,0.1,36.5,0.2,54.8,0.4c18.5,0.1,37.1,0.3,55.6,0.4c0.5,0,1.1,0,1.6-0.1c0.9-0.2,1.7,0.2,2.4,0.7c2.2,1.5,2.9,3.5,2.2,6.1
		c-4.9,19.2-9.9,38.5-14.8,57.7c-6.5,25.5-13.1,51-19.6,76.5c-1.9,7.2-3.7,14.4-5.6,21.6c-2.8,11.1-5.7,22.1-8.5,33.2
		c-0.1,0.5-0.2,0.9-0.4,1.4c-0.8,1.9-2.2,3-4.3,3.2c-0.5,0-1.1,0-1.6,0c-62.7,0-125.4,0-188,0c-0.5,0-1.1,0-1.6,0
		c-2.7-0.2-4.6-2.1-4.6-4.7c-0.1-2.6,1.7-4.7,4.3-5c0.7-0.1,1.3-0.1,2-0.1c5.3,0,10.6,0,15.9,0c55.6,0,111.3,0,166.9,0
		c0.9,0,1.7,0,2.7,0c1.2-3.7,2-7.5,3-11.1c0.9-3.6,2-7.2,2.7-11c-0.4-0.1-0.7-0.2-1.1-0.2c-0.7,0-1.5,0-2.2,0
		c-64.2,0-128.3,0-192.5,0c-0.9,0-1.7,0-2.6,0c-2.7-0.2-4.4-1.6-4.8-4.3c-0.4-2.9-0.8-5.9-1.2-8.8c-0.6-4.7-1.2-9.5-1.8-14.2
		c-0.5-3.6-0.9-7.2-1.4-10.8c-0.6-4.8-1.2-9.6-1.9-14.4c-0.6-4.6-1.2-9.2-1.8-13.8c-0.6-4.9-1.3-9.7-1.9-14.6
		c-0.6-4.7-1.2-9.3-1.8-14c-0.6-4.7-1.2-9.5-1.8-14.2c-0.5-3.7-0.9-7.5-1.4-11.2c-0.6-4.4-1.2-8.8-1.7-13.2
		c-0.6-4.6-1.2-9.2-1.9-13.8c-0.6-4.6-1.2-9.2-1.9-13.8c-0.6-4.5-1.2-9.1-1.8-13.6c-0.6-4.5-1.2-9-1.8-13.6c-0.3-2.5-0.7-5.1-1-7.6
		c-0.1-0.9-0.3-1.8-0.5-2.9c-0.8,0-1.6-0.1-2.3-0.1c-6.2,0-12.4,0-18.5,0c-0.9,0-1.9-0.1-2.8-0.3c-2.1-0.6-3.5-2.8-3.3-5
		c0.2-2.3,2-4.2,4.3-4.4c0.5-0.1,0.9,0,1.4,0c8.2,0,16.4,0,24.6,0c1.9,0,3.4,0.6,4.7,1.9c0.7,0.7,1,1.4,1.1,2.5
		c0.1,2.1,0.5,4.3,0.8,6.4c0.8,5.8,1.6,11.6,2.3,17.4c0.4,3.1,0.8,6.1,1.2,9.2C144.9,150.9,145,151.2,145.2,151.7z M362.4,311.8
		c0.2-0.7,0.5-1.4,0.6-2.1c2.7-10.7,5.5-21.3,8.2-32c8.1-31.7,16.3-63.5,24.4-95.2c1.5-5.7,2.9-11.4,4.4-17.2
		c0.2-0.6,0.5-1.3,0.1-2.1c-0.7,0-1.5,0-2.3-0.1c-16.4-0.1-32.8-0.2-49.2-0.4c-17.9-0.1-35.7-0.3-53.6-0.4
		c-24.7-0.2-49.3-0.3-74-0.5c-13.3-0.1-26.6-0.2-39.9-0.3c-10.9-0.1-21.8-0.1-32.6-0.2c-0.6,0-1.2,0.1-1.8,0.1
		c0,0.3-0.1,0.5-0.1,0.7c6.3,49.5,12.7,99.1,19.1,148.6c0,0.3,0.1,0.5,0.2,0.8c0.3,0.1,0.5,0.2,0.8,0.2
		C168.5,312.1,360.9,312,362.4,311.8z"/>
	<path class="st1" d="M354.9,384.2c0.1,12.6-10.3,23.3-23.4,23.2c-12.8-0.1-23.3-10.6-23.2-23.5c0.1-13.2,11.1-23.2,23.5-23.1
		C344.4,360.9,355.1,371.3,354.9,384.2z M331.6,370.6c-7.4-0.1-13.5,6.2-13.5,13.7c0.1,7.4,6.1,13.4,13.5,13.4
		c7.5,0,13.5-6,13.6-13.6C345.2,376.5,338.9,370.4,331.6,370.6z"/>
	<path class="st1" d="M215.8,360.9c12.6-0.2,23.4,10.2,23.3,23.3c0,12.8-10.4,23.2-23.2,23.3c-12.9,0.1-23.4-10.4-23.5-23.2
		C192.5,371.2,203.1,360.7,215.8,360.9z M202.3,384.2c-0.1,7.5,6.2,13.5,13.6,13.5c7.5-0.1,13.5-6.3,13.4-13.7
		c-0.1-7.3-6.1-13.4-13.6-13.4C208.4,370.6,202.1,376.7,202.3,384.2z"/>
	<path class="st0" d="M362.4,311.8c-1.5,0.2-193.9,0.3-195.7,0.1c-0.3,0-0.5-0.1-0.8-0.2c-0.1-0.3-0.2-0.6-0.2-0.8
		c-6.4-49.5-12.7-99.1-19.1-148.6c0-0.2,0-0.4,0.1-0.7c0.6,0,1.2-0.1,1.8-0.1c10.9,0.1,21.8,0.1,32.6,0.2
		c13.3,0.1,26.6,0.2,39.9,0.3c24.7,0.2,49.3,0.3,74,0.5c17.9,0.1,35.7,0.2,53.6,0.4c16.4,0.1,32.8,0.2,49.2,0.4c0.8,0,1.6,0,2.3,0.1
		c0.4,0.8,0.1,1.4-0.1,2.1c-1.5,5.7-2.9,11.4-4.4,17.2c-8.1,31.7-16.3,63.5-24.4,95.2c-2.7,10.7-5.5,21.3-8.2,32
		C362.9,310.4,362.6,311.1,362.4,311.8z M271.5,188.3c-31.2,0-62.3,0-93.5,0c-0.8,0-1.6,0-2.4,0.1c-2.8,0.3-4.7,3.1-4.1,5.9
		c0.5,2.1,2.1,3.5,4.4,3.8c0.8,0.1,1.6,0,2.4,0c62,0,124,0,186,0c0.6,0,1.2,0,1.8,0c0.6,0,1.2-0.1,1.8-0.3c2.2-0.7,3.6-2.7,3.4-5.1
		c-0.2-2.3-2-4.1-4.3-4.3c-0.8-0.1-1.6,0-2.4,0C333.6,188.3,302.6,188.3,271.5,188.3z M269.5,219.5c-29.2,0-58.4,0-87.6,0
		c-0.7,0-1.5,0-2.2,0c-2.6,0.3-4.5,2.3-4.4,4.9c0,2.6,2,4.7,4.7,4.8c0.6,0,1.2,0,1.8,0c58.6,0,117.3,0,175.9,0c0.5,0,1.1,0,1.6,0
		c2.6,0,4.9-2.2,4.9-4.9c0-2.7-2.1-4.7-4.9-4.9c-0.7,0-1.5,0-2.2,0C327.8,219.5,298.6,219.5,269.5,219.5z M267.9,260.4
		c27.7,0,55.4,0,83,0c0.8,0,1.6,0,2.4,0c2.3-0.1,4.5-2,4.6-4.7c0.1-2.5-1.8-4.7-4.4-4.9c-0.9-0.1-1.9-0.1-2.8-0.1
		c-35.5,0-70.9,0-106.4,0c-19.7,0-39.5,0-59.2,0c-0.9,0-1.7,0-2.6,0.1c-2.1,0.2-4.2,2.1-4.2,4.9c0,2.4,1.9,4.5,4.4,4.7
		c0.8,0.1,1.6,0.1,2.4,0.1C212.7,260.4,240.3,260.4,267.9,260.4z"/>
	<path class="st0" d="M331.6,370.6c7.3-0.2,13.6,5.9,13.6,13.5c0,7.5-6,13.6-13.6,13.6c-7.4,0-13.5-6-13.5-13.4
		C318,376.8,324.1,370.5,331.6,370.6z"/>
	<path class="st0" d="M202.3,384.2c-0.2-7.5,6.1-13.6,13.5-13.6c7.4,0,13.5,6.1,13.6,13.4c0.1,7.4-5.9,13.7-13.4,13.7
		C208.5,397.7,202.2,391.7,202.3,384.2z"/>
	<path class="st1" d="M271.5,188.3c31,0,62.1,0,93.1,0c0.8,0,1.6,0,2.4,0c2.3,0.2,4.1,2,4.3,4.3c0.2,2.4-1.2,4.4-3.4,5.1
		c-0.6,0.2-1.2,0.2-1.8,0.3c-0.6,0-1.2,0-1.8,0c-62,0-124,0-186,0c-0.8,0-1.6,0-2.4,0c-2.3-0.2-3.9-1.6-4.4-3.8
		c-0.7-2.8,1.2-5.5,4.1-5.9c0.8-0.1,1.6-0.1,2.4-0.1C209.2,188.3,240.4,188.3,271.5,188.3z"/>
	<path class="st1" d="M269.5,219.5c29.1,0,58.3,0,87.4,0c0.7,0,1.5,0,2.2,0c2.8,0.1,4.9,2.2,4.9,4.9c0,2.7-2.3,4.9-4.9,4.9
		c-0.5,0-1.1,0-1.6,0c-58.6,0-117.3,0-175.9,0c-0.6,0-1.2,0-1.8,0c-2.7-0.2-4.7-2.2-4.7-4.8c0-2.5,1.9-4.6,4.4-4.9
		c0.7-0.1,1.5,0,2.2,0C211,219.5,240.3,219.5,269.5,219.5z"/>
	<path class="st1" d="M267.9,260.4c-27.6,0-55.2,0-82.8,0c-0.8,0-1.6,0-2.4-0.1c-2.5-0.2-4.4-2.3-4.4-4.7c0-2.8,2.1-4.7,4.2-4.9
		c0.9-0.1,1.7-0.1,2.6-0.1c19.7,0,39.5,0,59.2,0c35.5,0,70.9,0,106.4,0c0.9,0,1.9,0,2.8,0.1c2.6,0.2,4.5,2.5,4.4,4.9
		c-0.1,2.8-2.3,4.7-4.6,4.7c-0.8,0-1.6,0-2.4,0C323.2,260.4,295.6,260.4,267.9,260.4z"/>
</g>
</svg>
