<svg id="레이어_1" data-name="레이어 1" xmlns="http://www.w3.org/2000/svg" viewBox="0 0 456.47 173.24"><defs><style>.cls-1{fill:#797062;}.cls-2{fill:none;stroke:#797062;stroke-miterlimit:10;stroke-width:2px;}</style></defs><title>titleLogo2</title><path class="cls-1" d="M15.22,113.46V24H.34V16.9C10.26,16.13,15.53,13.65,17.39,5h8.37V113.46Z" transform="translate(-0.34 -0.47)"/><path class="cls-1" d="M65.59,115.17c-10.23,0-17.82-5.73-22.94-13.33L50.25,95c5.11,6.67,9.61,10.54,15.65,10.54,7.91,0,12.4-4.18,12.4-10.54,0-7.28-2.94-11.47-15.19-19.06-12.71-7.6-18.6-13.34-18.6-25.42,0-11.63,8.68-20.15,21.08-20.15A24.23,24.23,0,0,1,87,42.17l-7.9,6.66C75.36,43.72,71.33,40,65,40s-10.23,3.87-10.23,9.76c0,6.36,2.95,9.77,14.57,17.05,12.71,7.75,19.22,14.11,19.22,27C88.53,107.26,78,115.17,65.59,115.17Z" transform="translate(-0.34 -0.47)"/><path class="cls-1" d="M132.86,112.84a28.82,28.82,0,0,1-12.09,2.33c-9.3,0-13.48-5.73-13.48-17.21V41.08H98.92v-9h8.37V6.67L117.67.47V32.09h15.66v9H117.67v55.8c0,5.89,2,8.37,6.2,8.37a22.49,22.49,0,0,0,9.92-2.17Z" transform="translate(-0.34 -0.47)"/><path class="cls-1" d="M229.58,113.46V61.08H194.71v52.38H183.86V5h10.85V51h34.87V5h10.7V113.46Z" transform="translate(-0.34 -0.47)"/><path class="cls-1" d="M285.85,115.17c-16.74,0-27.59-14.57-27.59-42.31s11.16-42.47,27.9-42.47c16.58,0,27.58,14.57,27.58,42.15C313.74,100.29,302.43,115.17,285.85,115.17Zm0-75c-10.7,0-16.9,10.54-16.9,32.55s6.36,32.71,17.05,32.71,17.05-10.7,17.05-32.71S296.54,40.15,285.85,40.15Z" transform="translate(-0.34 -0.47)"/><path class="cls-1" d="M358.7,112.84a28.9,28.9,0,0,1-12.1,2.33c-9.3,0-13.48-5.73-13.48-17.21V41.08h-8.37v-9h8.37V6.67L343.5.47V32.09h15.66v9H343.5v55.8c0,5.89,2,8.37,6.2,8.37a22.49,22.49,0,0,0,9.92-2.17Z" transform="translate(-0.34 -0.47)"/><path class="cls-1" d="M422.86,76.42H381.63c.78,17.52,6.05,29,16.12,29,6.51,0,11.16-2.64,16.74-9.15l6.36,6.82c-7,7.91-14.11,12.09-23.72,12.09-14.1,0-25.88-13.33-25.88-42.31,0-27,10.38-42.47,26.35-42.47C414.18,30.39,423,46.2,423,72.24A31.42,31.42,0,0,1,422.86,76.42ZM397.29,40.15c-8.53,0-14.57,8.37-15.5,26.82h31C412.17,51.31,407.37,40.15,397.29,40.15Z" transform="translate(-0.34 -0.47)"/><path class="cls-1" d="M441.46,113.46V6.67L452,.47v113Z" transform="translate(-0.34 -0.47)"/><path class="cls-2" d="M10.94,151h.66v10.11h15V151h.66v21H26.6V161.73h-15V172h-.66Z" transform="translate(-0.34 -0.47)"/><path class="cls-2" d="M48.05,161.55v-.06c0-5.73,4.08-10.83,10.44-10.83s10.44,5.1,10.44,10.83v.06c0,5.73-4.08,10.83-10.44,10.83S48.05,167.28,48.05,161.55Zm20.22,0v-.06c0-5.37-4-10.26-9.81-10.26s-9.75,4.8-9.75,10.2v.06c0,5.37,4,10.26,9.81,10.26S68.27,167,68.27,161.58Z" transform="translate(-0.34 -0.47)"/><path class="cls-2" d="M93.34,151.62H85.75V151h15.84v.6H94V172h-.66Z" transform="translate(-0.34 -0.47)"/><path class="cls-2" d="M121,151h14.67v.6h-14v9.54h12.72v.6H121.66v9.66h14.16v.6H121Z" transform="translate(-0.34 -0.47)"/><path class="cls-2" d="M156.31,151H157v20.4h12.9v.6H156.31Z" transform="translate(-0.34 -0.47)"/><path class="cls-2" d="M200.77,168.45c-1.92,2.4-4.29,3.87-7.11,3.87-3.69,0-6.21-2.52-6.21-5.43v-.06c0-3.54,2.88-5.1,5.79-6.45-2.1-2.19-2.82-3.78-2.82-5.31V155a4.51,4.51,0,0,1,4.77-4.35,4.41,4.41,0,0,1,4.65,4.23V155c0,2.19-1.38,3.75-5.58,5.61l6.48,7a25,25,0,0,0,2.94-5.88l.57.18a24.86,24.86,0,0,1-3.12,6.12l3.66,4-.45.39Zm-.39-.42-6.69-7.2c-2.82,1.29-5.58,2.67-5.58,6v.06c0,2.55,2.19,4.83,5.55,4.83A8.64,8.64,0,0,0,200.38,168ZM199.21,155v-.06a3.82,3.82,0,0,0-4-3.66,3.93,3.93,0,0,0-4.14,3.75V155c0,1.41.66,2.94,2.79,5.1C198,158.34,199.21,157,199.21,155Z" transform="translate(-0.34 -0.47)"/><path class="cls-2" d="M224.46,151H233c2.73,0,4.74.69,6,2a5.34,5.34,0,0,1,1.5,3.9V157c0,3.54-2.82,5.64-6.87,5.88l7,9.18h-.81l-7-9.15h-7.8V172h-.66Zm8.25,11.25c4.86,0,7.2-2.31,7.2-5.28v-.06c0-3.33-2.58-5.31-6.93-5.31h-7.86v10.65Z" transform="translate(-0.34 -0.47)"/><path class="cls-2" d="M261.66,151h14.67v.6h-14v9.54H275v.6H262.32v9.66h14.16v.6H261.66Z" transform="translate(-0.34 -0.47)"/><path class="cls-2" d="M295.47,169l.48-.48a11.12,11.12,0,0,0,7.89,3.24c3.93,0,6.45-2.13,6.45-4.95v-.06c0-2.58-1.56-4-6.87-5s-7.17-2.58-7.17-5.52v-.06c0-2.94,2.88-5.37,6.84-5.37a11.69,11.69,0,0,1,7.14,2.4l-.42.54a11.23,11.23,0,0,0-6.78-2.34c-3.69,0-6.12,2.28-6.12,4.74v.06c0,2.55,1.62,3.9,6.78,4.95,5.46,1.11,7.26,2.76,7.26,5.61v.06c0,3.12-2.73,5.58-7.17,5.58A11.91,11.91,0,0,1,295.47,169Z" transform="translate(-0.34 -0.47)"/><path class="cls-2" d="M330.63,161.55v-.06c0-5.73,4.08-10.83,10.44-10.83s10.44,5.1,10.44,10.83v.06c0,5.73-4.08,10.83-10.44,10.83S330.63,167.28,330.63,161.55Zm20.22,0v-.06c0-5.37-4-10.26-9.81-10.26s-9.75,4.8-9.75,10.2v.06c0,5.37,4,10.26,9.81,10.26S350.85,167,350.85,161.58Z" transform="translate(-0.34 -0.47)"/><path class="cls-2" d="M372.29,151h8.58c2.73,0,4.74.69,6,2a5.34,5.34,0,0,1,1.5,3.9V157c0,3.54-2.82,5.64-6.87,5.88l7,9.18h-.81l-7-9.15H373V172h-.66Zm8.25,11.25c4.86,0,7.2-2.31,7.2-5.28v-.06c0-3.33-2.58-5.31-6.93-5.31H373v10.65Z" transform="translate(-0.34 -0.47)"/><path class="cls-2" d="M414.47,151.62h-7.59V151h15.84v.6h-7.59V172h-.66Z" transform="translate(-0.34 -0.47)"/><path class="cls-2" d="M440.33,169l.48-.48a11.12,11.12,0,0,0,7.89,3.24c3.93,0,6.45-2.13,6.45-4.95v-.06c0-2.58-1.56-4-6.87-5s-7.17-2.58-7.17-5.52v-.06c0-2.94,2.88-5.37,6.84-5.37a11.69,11.69,0,0,1,7.14,2.4l-.42.54a11.23,11.23,0,0,0-6.78-2.34c-3.69,0-6.12,2.28-6.12,4.74v.06c0,2.55,1.62,3.9,6.78,4.95,5.46,1.11,7.26,2.76,7.26,5.61v.06c0,3.12-2.73,5.58-7.17,5.58A11.91,11.91,0,0,1,440.33,169Z" transform="translate(-0.34 -0.47)"/></svg>