<svg id="레이어_1" data-name="레이어 1" xmlns="http://www.w3.org/2000/svg" viewBox="0 0 150 150"><defs><style>.cls-1{fill:#ccc;}.cls-2{fill:#fefefe;}</style></defs><title>user</title><rect class="cls-1" width="150" height="150"/><path class="cls-2" d="M117.73,125.17a3,3,0,0,1-1.37,2.69A69.25,69.25,0,0,1,80.17,142.1c-17.5,1.52-32.88-4.14-46.8-14.4-.63-.46-1.19-.9-1.16-1.78.23-6.73-.61-13.5.47-20.19a26.5,26.5,0,0,1,25.8-22.15c5.57-.06,11.15,0,18,0,5.44.35,12.19-.55,18.9.46,12.31,1.86,22,12.75,22.28,25.15C117.79,114.51,117.68,119.84,117.73,125.17Z" transform="translate(-0.21 0.43)"/><path class="cls-2" d="M46.58,49.48A28.07,28.07,0,0,1,74.77,21c16,0,28.36,12.37,28.64,28.33A28.36,28.36,0,0,1,74.9,77.92C57.4,77.89,46.08,63.23,46.58,49.48Z" transform="translate(-0.21 0.43)"/></svg>