<?xml version="1.0" encoding="utf-8"?>
<!-- Generator: Adobe Illustrator 22.0.1, SVG Export Plug-In . SVG Version: 6.00 Build 0)  -->
<svg version="1.1" id="Capa_1" xmlns="http://www.w3.org/2000/svg" xmlns:xlink="http://www.w3.org/1999/xlink" x="0px" y="0px"
	 viewBox="0 0 512 512" style="enable-background:new 0 0 512 512;" xml:space="preserve">
<style type="text/css">
	.st0{fill:#836D56;}
	.st1{fill:#FFFFFF;}
</style>
<g transform="matrix(0.970299 0 0 0.970299 9.0885 9.0885)">
	<g>
		<g>
			<path class="st0" d="M490.2,154.9c-13.5-31.2-31.7-58.4-54.8-81.4c-23-23-50.2-41.3-81.4-54.8C322.8,5.2,289.6-1.5,254.5-1.5
				c-23.5,0-46.3,3.1-68.1,9.2c-21.8,6.1-42.2,14.8-61.2,25.8C106.2,44.6,89,57.9,73.5,73.5s-28.8,32.8-39.9,51.7
				c-11.1,18.9-19.7,39.3-25.8,61.2c-6.2,21.8-9.2,44.5-9.2,68.1s3.1,46.3,9.2,68.1c6.1,21.8,14.8,42.2,25.8,61.2
				c11.1,18.9,24.4,36.2,39.9,51.7c15.5,15.5,32.8,28.8,51.7,39.9c18.9,11.1,39.3,19.7,61.2,25.8c21.8,6.2,44.5,9.2,68.1,9.2
				s46.3-3.1,68.1-9.2c21.8-6.1,42.2-14.8,61.2-25.8c18.9-11.1,36.2-24.4,51.7-39.9c15.5-15.5,28.8-32.8,39.9-51.7
				c11.1-18.9,19.7-39.3,25.8-61.2c6.2-21.8,9.2-44.5,9.2-68.1C510.5,219.3,503.7,186.1,490.2,154.9z M211.7,391.4
				c-4.6,4.6-10.3,6.9-17.1,6.9c-6.8,0-12.6-2.3-17.2-6.9c-4.6-4.6-6.9-10.3-6.9-17.1s2.3-12.5,6.9-17.1c4.6-4.6,10.3-6.9,17.2-6.9
				c6.8,0,12.5,2.3,17.1,6.9c4.6,4.6,6.9,10.3,6.9,17.1S216.3,386.8,211.7,391.4z M352.5,391.4c-4.6,4.6-10.3,6.9-17.2,6.9
				c-6.8,0-12.5-2.3-16.9-6.9c-4.4-4.6-6.7-10.3-6.7-17.1s2.2-12.5,6.7-17.1c4.4-4.6,10.1-6.9,16.9-6.9c6.8,0,12.5,2.3,17.2,6.9
				c4.6,4.6,6.9,10.3,6.9,17.1S357.1,386.8,352.5,391.4z M404,205.3l-12.8,72.2c-0.7,3.8-2.4,6.8-5.1,9.2c-2.7,2.4-6,3.6-9.7,3.6
				H193l-3.6,20.5h174.1c4.4,0,8.2,1.4,11.3,4.3c3.1,2.9,4.6,6.6,4.6,11c0,4.4-1.5,8.1-4.6,11c-3.1,2.9-6.8,4.3-11.3,4.3H171
				c-4.8,0-8.7-1.9-11.8-5.6c-1.7-1.7-2.8-3.7-3.3-5.9c-0.5-2.2-0.6-4.3-0.3-6.4l8.2-45.1l-12.8-126l-35.3-11.3
				c-4.1-1.4-7.2-3.9-9.2-7.7c-2.1-3.8-2.4-7.7-1-11.8c1.4-4.1,3.9-7.2,7.7-9.2c3.8-2.1,7.7-2.4,11.8-1l45.6,14.3
				c2.7,0.7,5.1,2.3,7.2,4.9c2.1,2.6,3.2,5.4,3.6,8.5l2.6,25.1l206.3,23c4.4,0.7,8,2.7,10.7,6.1C403.6,197.3,404.6,201.2,404,205.3z
				"/>
			<path class="st1" d="M359.4,374.3c0,6.8-2.3,12.5-6.9,17.1c-4.6,4.6-10.3,6.9-17.2,6.9c-6.8,0-12.5-2.3-16.9-6.9
				c-4.4-4.6-6.7-10.3-6.7-17.1s2.2-12.5,6.7-17.1c4.4-4.6,10.1-6.9,16.9-6.9c6.8,0,12.5,2.3,17.2,6.9
				C357.1,361.7,359.4,367.5,359.4,374.3z"/>
			<path class="st1" d="M218.6,374.3c0,6.8-2.3,12.5-6.9,17.1c-4.6,4.6-10.3,6.9-17.1,6.9c-6.8,0-12.6-2.3-17.2-6.9
				c-4.6-4.6-6.9-10.3-6.9-17.1s2.3-12.5,6.9-17.1c4.6-4.6,10.3-6.9,17.2-6.9c6.8,0,12.5,2.3,17.1,6.9
				C216.3,361.7,218.6,367.5,218.6,374.3z"/>
			<path class="st1" d="M404,205.3l-12.8,72.2c-0.7,3.8-2.4,6.8-5.1,9.2c-2.7,2.4-6,3.6-9.7,3.6H193l-3.6,20.5h174.1
				c4.4,0,8.2,1.4,11.3,4.3c3.1,2.9,4.6,6.6,4.6,11c0,4.4-1.5,8.1-4.6,11c-3.1,2.9-6.8,4.3-11.3,4.3H171c-4.8,0-8.7-1.9-11.8-5.6
				c-1.7-1.7-2.8-3.7-3.3-5.9c-0.5-2.2-0.6-4.3-0.3-6.4l8.2-45.1l-12.8-126l-35.3-11.3c-4.1-1.4-7.2-3.9-9.2-7.7
				c-2.1-3.8-2.4-7.7-1-11.8c1.4-4.1,3.9-7.2,7.7-9.2c3.8-2.1,7.7-2.4,11.8-1l45.6,14.3c2.7,0.7,5.1,2.3,7.2,4.9
				c2.1,2.6,3.2,5.4,3.6,8.5l2.6,25.1l206.3,23c4.4,0.7,8,2.7,10.7,6.1C403.6,197.3,404.6,201.2,404,205.3z"/>
		</g>
	</g>
</g>
</svg>
